<?xml version="1.0" encoding="UTF-8"?>
<svg version="1.1" xmlns="http://www.w3.org/2000/svg" width="677" height="369">
<path d="M0 0 C-0.61721854 2.90607062 -1.51963684 5.17992506 -3 7.75 C-3.66902344 8.92369141 -3.66902344 8.92369141 -4.3515625 10.12109375 C-4.89554688 11.07113281 -5.43953125 12.02117187 -6 13 C-6.69656442 14.24018309 -7.39178097 15.48112381 -8.0859375 16.72265625 C-12.14359365 23.97637533 -16.25771229 31.19095966 -20.46484375 38.359375 C-21.77918685 40.62017891 -23.05637703 42.89409082 -24.3125 45.1875 C-25.90245972 48.08499238 -27.5520291 50.93838281 -29.25 53.7734375 C-42.50510276 75.35103964 -42.50510276 75.35103964 -51 99 C-45.97848552 94.2691198 -41.61327007 89.16388144 -37.28125 83.80078125 C-35.0816205 81.10020874 -32.84753791 78.4411215 -30.5625 75.8125 C-29.92441406 75.07644531 -29.28632813 74.34039062 -28.62890625 73.58203125 C-27 72 -27 72 -25 72 C-24.731875 71.4225 -24.46375 70.845 -24.1875 70.25 C-22.97070811 67.94449957 -21.69666121 65.97943808 -20 64 C-19.34 64 -18.68 64 -18 64 C-17.690625 63.360625 -17.38125 62.72125 -17.0625 62.0625 C-16 60 -16 60 -15 59 C-12.6243148 58.9116033 -10.27791326 58.88469695 -7.90234375 58.90234375 C-6.83905602 58.90446617 -6.83905602 58.90446617 -5.75428772 58.90663147 C-3.48198288 58.91224557 -1.20977525 58.92480037 1.0625 58.9375 C2.59960796 58.94251319 4.13671745 58.94707641 5.67382812 58.95117188 C9.44925642 58.96221958 13.22461171 58.97949359 17 59 C16.67 60.65 16.34 62.3 16 64 C15.01 64.33 14.02 64.66 13 65 C11.78130071 67.50447516 11.78130071 67.50447516 11 70 C10.34 70 9.68 70 9 70 C8.67 70.99 8.34 71.98 8 73 C7.0206121 74.02019573 6.02104551 75.02149805 5 76 C4.67 76.66 4.34 77.32 4 78 C3.34 78 2.68 78 2 78 C2 78.66 2 79.32 2 80 C0.91413709 81.12089074 -0.18125239 82.23333562 -1.30859375 83.3125 C-3.46444778 85.46337515 -5.47373658 87.72679629 -7.5 90 C-10.57466564 93.44118207 -13.73699345 96.73699345 -17 100 C-18.70613371 101.97079711 -20.35412083 103.97791987 -22 106 C-21.4946875 106.62648438 -20.989375 107.25296875 -20.46875 107.8984375 C-19.8190625 108.71570313 -19.169375 109.53296875 -18.5 110.375 C-17.8503125 111.18710938 -17.200625 111.99921875 -16.53125 112.8359375 C-15 115 -15 115 -15 117 C-14.34 117 -13.68 117 -13 117 C-9 122.41176471 -9 122.41176471 -9 125 C-8.41476562 125.23074219 -7.82953125 125.46148437 -7.2265625 125.69921875 C-4.42393331 127.33654423 -3.21314417 129.14132454 -1.375 131.8125 C1.72726982 136.21946273 4.89632343 140.54632009 8.1875 144.8125 C8.98542969 145.85019531 9.78335938 146.88789063 10.60546875 147.95703125 C11.85010329 149.53871202 13.10418197 151.11619891 14.44775391 152.61474609 C15.7010406 154.01761444 16.85899259 155.50438334 18 157 C17.67 157.99 17.34 158.98 17 160 C12.67677539 160.12400035 8.35450398 160.21452256 4.0300293 160.2746582 C2.56044475 160.29973644 1.09098413 160.33380856 -0.37817383 160.37719727 C-2.49591681 160.43815499 -4.61200576 160.46627316 -6.73046875 160.48828125 C-8.00301514 160.51446533 -9.27556152 160.54064941 -10.58666992 160.56762695 C-16.97659393 159.50500101 -20.06049513 153.81497464 -23.75 148.875 C-24.52859375 147.84117187 -25.3071875 146.80734375 -26.109375 145.7421875 C-28 143 -28 143 -29 140 C-29.99 139.67 -30.98 139.34 -32 139 C-32.309375 138.030625 -32.61875 137.06125 -32.9375 136.0625 C-33.64660389 132.89686724 -33.64660389 132.89686724 -36 131.9375 C-36.66 131.628125 -37.32 131.31875 -38 131 C-39.25 128.375 -39.25 128.375 -40 126 C-42.90802461 128.21928194 -44.95312762 129.92969143 -47 133 C-47.66 133 -48.32 133 -49 133 C-49.3403125 133.80630859 -49.3403125 133.80630859 -49.6875 134.62890625 C-51.73014912 138.31904916 -54.59221054 141.3386534 -57.3671875 144.49023438 C-59.98573008 147.53874474 -61.67609626 150.21832282 -63 154 C-64.1131031 155.82144143 -65.2319388 157.63968546 -66.3828125 159.4375 C-68.45375638 162.71899562 -70.4460315 166.04484742 -72.4375 169.375 C-72.82703857 170.02637939 -73.21657715 170.67775879 -73.61791992 171.34887695 C-74.38743898 172.63570081 -75.15689042 173.92256511 -75.92626953 175.20947266 C-76.88183028 176.80294299 -77.8447015 178.39202429 -78.80859375 179.98046875 C-81.39694632 184.2470549 -83.86311588 188.48880019 -86 193 C-88.25390625 192.90234375 -88.25390625 192.90234375 -91 192 C-92.56123416 189.83713418 -93.73960957 187.91191484 -94.9375 185.5625 C-95.63189231 184.27424316 -96.32721004 182.98648472 -97.0234375 181.69921875 C-97.52762207 180.74861572 -97.52762207 180.74861572 -98.04199219 179.77880859 C-99.30685663 177.43023512 -100.67334517 175.15187676 -102.0625 172.875 C-105.43667968 167.28480501 -108.75210324 161.66461134 -112 156 C-112.33273926 155.42717285 -112.66547852 154.8543457 -113.00830078 154.26416016 C-114.0187747 152.51661207 -115.01124908 150.75991184 -116 149 C-116.598125 147.948125 -117.19625 146.89625 -117.8125 145.8125 C-119 143 -119 143 -118.89453125 141.01953125 C-117.62722356 138.15840427 -116.19316704 135.43123158 -114.6875 132.6875 C-113.74390625 130.96466797 -113.74390625 130.96466797 -112.78125 129.20703125 C-107.67153285 120.00729927 -107.67153285 120.00729927 -105 116 C-101.83884224 117.36983503 -101.0072908 117.9890638 -99 121 C-99 122.32 -99 123.64 -99 125 C-98.34 125 -97.68 125 -97 125 C-96.60167969 125.74765625 -96.20335937 126.4953125 -95.79296875 127.265625 C-95.26316406 128.25046875 -94.73335938 129.2353125 -94.1875 130.25 C-93.40439453 131.71179688 -93.40439453 131.71179688 -92.60546875 133.203125 C-91.21034812 135.63355412 -89.73804039 137.80787699 -88 140 C-87.57589844 139.27425781 -87.15179688 138.54851562 -86.71484375 137.80078125 C-85.10143137 135.16566353 -83.37594211 132.68754603 -81.5625 130.1875 C-78.96072799 126.5121547 -76.77224731 122.89130301 -74.921875 118.7890625 C-74 117 -74 117 -72.60717773 115.16894531 C-66.86133095 107.41471428 -65.24210728 100.41307118 -65.1875 90.875 C-65.16236328 89.823125 -65.13722656 88.77125 -65.11132812 87.6875 C-65.05308091 85.12462254 -65.01634594 82.56342816 -65 80 C-72.21362054 83.55135623 -72.21362054 83.55135623 -77.5625 89.375 C-78.11679687 90.23480469 -78.67109375 91.09460938 -79.2421875 91.98046875 C-81.99741675 96.71334034 -84.59127432 101.52200258 -87.10546875 106.38671875 C-88.96911979 109.98545933 -90.96956951 113.4928928 -93 117 C-94.7578125 116.8984375 -94.7578125 116.8984375 -97 116 C-98.47524259 113.87971207 -99.67977429 111.89429968 -100.875 109.625 C-101.22522217 108.98651123 -101.57544434 108.34802246 -101.9362793 107.69018555 C-102.97016297 105.79997289 -103.98696331 103.90144763 -105 102 C-105.93610509 100.27007779 -106.87347977 98.54084158 -107.8125 96.8125 C-108.27527344 95.9565625 -108.73804688 95.100625 -109.21484375 94.21875 C-113.35907765 86.7464333 -117.69840953 79.3825214 -122 72 C-124.79827399 74.6486259 -126.21828757 77.19049348 -127.875 80.6875 C-130.31463414 85.68665201 -132.94871317 90.35711975 -136 95 C-140.85499058 102.14461924 -140.85499058 102.14461924 -144.625 109.875 C-146.18520949 113.42093065 -148.12915329 115.43951509 -151 118 C-154.74469038 112.8087306 -158.22830115 107.78441498 -161 102 C-162.94739372 98.63515905 -164.98240953 95.32309019 -167 92 C-168.82164363 88.97185897 -170.63807472 85.94059013 -172.45141602 82.9074707 C-174.47367184 79.52851701 -176.51202285 76.16094577 -178.578125 72.80859375 C-178.99408936 72.12885498 -179.41005371 71.44911621 -179.83862305 70.7487793 C-180.63941753 69.44095875 -181.44537806 68.13628395 -182.25708008 66.83520508 C-185 62.33735676 -185 62.33735676 -185 59 C-183.69804687 58.81824219 -182.39609375 58.63648438 -181.0546875 58.44921875 C-179.32804563 58.19585282 -177.6014874 57.9419164 -175.875 57.6875 C-174.59109375 57.51057617 -174.59109375 57.51057617 -173.28125 57.33007812 C-160.15833471 55.36164083 -150.66710533 46.8105768 -140.99804688 38.26391602 C-137.49612732 35.18767469 -133.92727153 32.53319862 -130 30 C-128.99066406 29.20142578 -128.99066406 29.20142578 -127.9609375 28.38671875 C-119.98445381 22.74597829 -109.42788038 21.74083304 -100 23 C-94.57207377 24.66587543 -89.72187532 26.85208312 -85 30 C-85 30.99 -85 31.98 -85 33 C-85.6290625 32.95359375 -86.258125 32.9071875 -86.90625 32.859375 C-93.00285458 32.60228926 -98.08268221 33.09507117 -103 37 C-104.9785423 40.00635648 -105.27171344 42.43899621 -105.25 46 C-105.25515625 46.845625 -105.2603125 47.69125 -105.265625 48.5625 C-104.97335029 51.24455024 -104.52415539 52.77530114 -103 55 C-97.92293172 58.45887918 -92.94865338 59.36880545 -86.9375 58.4375 C-84.95006467 57.99387604 -82.96974743 57.51652344 -81 57 C-80.21625 56.82339844 -79.4325 56.64679688 -78.625 56.46484375 C-71.73091043 54.60590174 -66.5365382 50.35818265 -61 46 C-59.96875 45.236875 -58.9375 44.47375 -57.875 43.6875 C-53.42680377 39.52940352 -49.78429453 34.75846936 -46 30 C-43.69069984 27.15719816 -41.37227106 24.3225277 -39.04296875 21.49609375 C-37.83871909 20.02474473 -36.6476921 18.54209077 -35.48828125 17.03515625 C-26.87575613 6.15228067 -14.05632314 -1.08125563 0 0 Z " fill="#4D7286" transform="translate(449,101)"/>
<path d="M0 0 C1.21042969 -0.03738281 2.42085937 -0.07476562 3.66796875 -0.11328125 C7.54859389 0.41216986 8.45332465 1.24102545 10.8125 4.3125 C12.19802669 6.38267171 13.5282879 8.49049902 14.8125 10.625 C15.3379541 11.49439209 15.3379541 11.49439209 15.87402344 12.38134766 C18.5967834 16.90194121 21.22295829 21.46772495 23.796875 26.07421875 C25.33961323 28.8096123 26.91779598 31.4669341 28.6875 34.0625 C30.57360391 36.94712952 32.19362 39.83654934 33.8125 42.875 C35.86763728 46.70643684 38.07392417 49.93492314 40.8125 53.3125 C41.86952116 55.29793137 42.84290471 57.30543725 43.78515625 59.34765625 C44.77491134 61.37032017 44.77491134 61.37032017 46.25 63.22265625 C48.02851655 65.60142214 49.36359862 68.06179554 50.75 70.6875 C52.89424345 74.7472676 55.22686081 78.52618602 57.8125 82.3125 C58.42996094 81.18714844 59.04742187 80.06179687 59.68359375 78.90234375 C63.86029297 71.32065445 68.07029463 63.77512347 72.5625 56.375 C76.16085615 50.445501 79.54548409 44.43023617 82.8125 38.3125 C83.89349429 36.31123479 84.97680764 34.31122039 86.0625 32.3125 C86.54203125 31.425625 87.0215625 30.53875 87.515625 29.625 C88.8125 27.3125 88.8125 27.3125 90.8125 24.3125 C94.85024475 25.65841492 95.71866829 28.19601013 97.625 31.75 C98.32678434 33.02808081 99.02992049 34.30542024 99.734375 35.58203125 C100.08177734 36.21447754 100.42917969 36.84692383 100.78710938 37.49853516 C102.67086334 40.83098562 104.77758526 44.02818821 106.87890625 47.2265625 C108.04173253 49.82467644 107.66609739 50.64848498 106.8125 53.3125 C106.2339351 54.58403813 105.61274705 55.83678773 104.95703125 57.0703125 C104.58489502 57.77333496 104.21275879 58.47635742 103.8293457 59.20068359 C103.43191162 59.93883301 103.03447754 60.67698242 102.625 61.4375 C102.21789795 62.2001416 101.8107959 62.9627832 101.39135742 63.74853516 C98.7894072 68.59035358 96.07034804 73.33634801 93.19140625 78.01953125 C91.73865411 80.43529755 90.39536886 82.89118588 89.0625 85.375 C86.37385484 90.35397252 83.55214464 95.24598837 80.6875 100.125 C80.26758789 100.84244385 79.84767578 101.5598877 79.41503906 102.29907227 C77.55725427 105.45033054 75.6646791 108.53396643 73.6328125 111.578125 C72.16811847 113.77830916 70.93944192 115.8703414 69.8125 118.25 C66.92602039 124.16953826 63.80898224 130.06711705 59.8125 135.3125 C57.6875 135.9765625 57.6875 135.9765625 55.8125 136.3125 C55.24402344 135.28511719 54.67554688 134.25773438 54.08984375 133.19921875 C50.14349359 126.10335281 46.13204228 119.11363042 41.703125 112.3046875 C38.8033745 107.71541295 36.08639722 103.02032332 33.36352539 98.32446289 C30.97555947 94.22240327 28.4718715 90.24722601 25.8125 86.3125 C23.95317551 83.15164837 22.16514283 79.97270348 20.4375 76.73828125 C17.66904319 71.56905329 14.76036102 66.65794132 11.4453125 61.82421875 C9.43261253 58.72812764 7.62078406 55.53016937 5.8125 52.3125 C3.14031692 47.55984057 0.35690951 42.94522773 -2.765625 38.47265625 C-4.31496863 36.11884573 -5.69110688 33.68536366 -7.07666016 31.23266602 C-9.44454095 27.13961493 -12.02519148 23.17365914 -14.56445312 19.18554688 C-17.00680559 15.31570073 -19.17425585 11.42859857 -21.1875 7.3125 C-21.8475 6.3225 -22.5075 5.3325 -23.1875 4.3125 C-23.1875 3.3225 -23.1875 2.3325 -23.1875 1.3125 C-15.46712771 0.69925057 -7.74255171 0.20454882 0 0 Z " fill="#F66E2D" transform="translate(234.1875,158.6875)"/>
<path d="M0 0 C0.804375 0.64839844 1.60875 1.29679687 2.4375 1.96484375 C3.365625 2.66480469 4.29375 3.36476563 5.25 4.0859375 C6.3328125 5.01599609 6.3328125 5.01599609 7.4375 5.96484375 C7.4375 6.62484375 7.4375 7.28484375 7.4375 7.96484375 C8.0253125 8.19816406 8.613125 8.43148437 9.21875 8.671875 C13.51557237 11.17583311 15.77993951 15.87109584 18.4375 19.96484375 C18.90285156 20.64933594 19.36820313 21.33382812 19.84765625 22.0390625 C21 23.83984375 21 23.83984375 22.4375 26.96484375 C21.13746216 31.07866213 17.86225996 34.09509235 15 37.21484375 C14.50951172 37.76914063 14.01902344 38.3234375 13.51367188 38.89453125 C12.21934954 40.31287098 10.83306825 41.64600064 9.4375 42.96484375 C8.4475 42.96484375 7.4575 42.96484375 6.4375 42.96484375 C5.921875 41.87171875 5.40625 40.77859375 4.875 39.65234375 C-2.02158648 25.90808276 -10.64003023 15.76557339 -25.0625 9.78125 C-34.49896228 6.69965529 -43.8118181 6.63342534 -53.5625 7.96484375 C-54.26761719 8.05507812 -54.97273438 8.1453125 -55.69921875 8.23828125 C-66.26019271 10.23091785 -76.68137554 16.95208899 -82.796875 25.73828125 C-83.15265625 26.28742188 -83.5084375 26.8365625 -83.875 27.40234375 C-84.431875 28.24796875 -84.98875 29.09359375 -85.5625 29.96484375 C-86.2225 29.96484375 -86.8825 29.96484375 -87.5625 29.96484375 C-87.75585938 30.54492188 -87.94921875 31.125 -88.1484375 31.72265625 C-88.40882813 32.50382812 -88.66921875 33.285 -88.9375 34.08984375 C-89.21207031 34.91742188 -89.48664063 35.745 -89.76953125 36.59765625 C-90.37080086 38.39257933 -90.99304279 40.18049399 -91.625 41.96484375 C-92.85903533 45.9137568 -93.71704224 49.91743959 -94.5625 53.96484375 C-108.48708842 58.65523143 -108.48708842 58.65523143 -114.5625 57.96484375 C-116.08858465 56.4387591 -115.73392215 55.0725869 -115.75390625 52.94921875 C-115.69387023 48.12727841 -114.83625609 43.83206311 -113.5 39.21484375 C-113.27449463 38.43407471 -113.04898926 37.65330566 -112.81665039 36.84887695 C-107.01558712 17.74905736 -93.96084364 3.37606201 -76.77734375 -6.39453125 C-52.63841705 -18.71330308 -21.53926098 -16.58129085 0 0 Z " fill="#9D7B68" transform="translate(379.5625,98.03515625)"/>
<path d="M0 0 C0.66 0.33 1.32 0.66 2 1 C-0.12274914 5.73536346 -2.42995339 7.7149767 -7 10 C-7.33 10.66 -7.66 11.32 -8 12 C-8.969375 12.12375 -9.93875 12.2475 -10.9375 12.375 C-11.948125 12.58125 -12.95875 12.7875 -14 13 C-14.68926186 14.32179435 -15.35265473 15.65717971 -16 17 C-24.17789479 25.36125566 -34.89562205 27.77912441 -46 30 C-45.41992188 30.96099609 -45.41992188 30.96099609 -44.828125 31.94140625 C-43.21288788 34.62413919 -41.60478672 37.31100371 -40 40 C-39.57460938 40.71027344 -39.14921875 41.42054688 -38.7109375 42.15234375 C-36 46.76483813 -36 46.76483813 -36 49 C-35.34 49 -34.68 49 -34 49 C-33.16180842 50.62249941 -32.3295884 52.24808497 -31.5 53.875 C-31.0359375 54.77992188 -30.571875 55.68484375 -30.09375 56.6171875 C-29 59 -29 59 -29 61 C-28.34 61 -27.68 61 -27 61 C-26.62488281 61.80824219 -26.24976563 62.61648437 -25.86328125 63.44921875 C-22.07623378 71.59668993 -22.07623378 71.59668993 -16 78 C-15.34 78 -14.68 78 -14 78 C-13.71640625 77.27296875 -13.4328125 76.5459375 -13.140625 75.796875 C-10.29522816 68.81980605 -6.76713902 62.50733345 -2.4921875 56.31640625 C0.0325727 52.39707955 2.01306158 48.21125444 4 44 C4.66 44 5.32 44 6 44 C6.28875 43.071875 6.5775 42.14375 6.875 41.1875 C8 38 8 38 10 35 C10.99 35 11.98 35 13 35 C13.92232422 36.64548828 13.92232422 36.64548828 14.86328125 38.32421875 C15.67964917 39.77866735 16.49605756 41.23309323 17.3125 42.6875 C17.71662109 43.40873047 18.12074219 44.12996094 18.53710938 44.87304688 C18.93349609 45.57880859 19.32988281 46.28457031 19.73828125 47.01171875 C20.31570068 48.0469165 20.31570068 48.0469165 20.90478516 49.10302734 C21.82497044 50.69683912 22.83113193 52.24057376 23.85546875 53.76953125 C25.22938513 56.447027 24.85256545 57.22451888 24 60 C23.71278076 59.47043701 23.42556152 58.94087402 23.12963867 58.39526367 C21.82098648 55.98969569 20.50434586 53.58859168 19.1875 51.1875 C18.73568359 50.35412109 18.28386719 49.52074219 17.81835938 48.66210938 C17.37685547 47.85966797 16.93535156 47.05722656 16.48046875 46.23046875 C16.07723389 45.49207764 15.67399902 44.75368652 15.25854492 43.99291992 C14.01894695 42.03000271 12.70426786 40.56567428 11 39 C10.68289063 39.59683594 10.36578125 40.19367188 10.0390625 40.80859375 C6.7715686 46.883244 3.36664335 52.86432367 -0.125 58.8125 C-0.54442871 59.52913818 -0.96385742 60.24577637 -1.39599609 60.98413086 C-3.26209525 64.14942697 -5.16116902 67.23933741 -7.21484375 70.2890625 C-9.14969291 73.03305582 -9.14969291 73.03305582 -10.4375 76.5625 C-12.11108239 80.24438126 -14.00382485 82.32773568 -17 85 C-20.74469038 79.8087306 -24.22830115 74.78441498 -27 69 C-28.94739372 65.63515905 -30.98240953 62.32309019 -33 59 C-34.82164363 55.97185897 -36.63807472 52.94059013 -38.45141602 49.9074707 C-40.47367184 46.52851701 -42.51202285 43.16094577 -44.578125 39.80859375 C-44.99408936 39.12885498 -45.41005371 38.44911621 -45.83862305 37.7487793 C-46.63941753 36.44095875 -47.44537806 35.13628395 -48.25708008 33.83520508 C-51 29.33735676 -51 29.33735676 -51 26 C-49.04707031 25.72736328 -49.04707031 25.72736328 -47.0546875 25.44921875 C-45.32804563 25.19585282 -43.6014874 24.9419164 -41.875 24.6875 C-41.0190625 24.56955078 -40.163125 24.45160156 -39.28125 24.33007812 C-26.00841222 22.33915246 -16.45385025 13.59719092 -6.64648438 5.00024414 C-2.18116128 1.09058064 -2.18116128 1.09058064 0 0 Z " fill="#E28B59" transform="translate(315,134)"/>
<path d="M0 0 C0.66 0.33 1.32 0.66 2 1 C-0.93421951 5.17562008 -3.49997063 6.74998531 -8 9 C-20.60011584 18.38911858 -31.4478733 32.20367898 -34 48 C-33.938125 49.11375 -33.938125 49.11375 -33.875 50.25 C-34.06439338 54.41665446 -35.57498793 58.10666345 -37 62 C-36.26394531 61.7834375 -35.52789062 61.566875 -34.76953125 61.34375 C-33.79371094 61.0653125 -32.81789063 60.786875 -31.8125 60.5 C-30.84957031 60.2215625 -29.88664062 59.943125 -28.89453125 59.65625 C-26.14654124 59.03322392 -23.80401584 58.87697188 -21 59 C-20.9175 57.741875 -20.835 56.48375 -20.75 55.1875 C-19.80582456 46.743114 -16.45452799 39.15906284 -12 32 C-11.34 32 -10.68 32 -10 32 C-9.7525 31.443125 -9.505 30.88625 -9.25 30.3125 C-7.35861283 26.81343373 -5.60990894 23.58135601 -1.75 22.1875 C-1.1725 22.125625 -0.595 22.06375 0 22 C0 21.34 0 20.68 0 20 C1.26691507 19.32591692 2.53870749 18.66099503 3.8125 18 C4.52019531 17.62875 5.22789062 17.2575 5.95703125 16.875 C8 16 8 16 11 16 C11.66 16.66 12.32 17.32 13 18 C12.21496094 18.35191406 11.42992187 18.70382813 10.62109375 19.06640625 C2.44668349 22.90787757 -3.38545874 26.82298169 -8.3125 34.4375 C-8.869375 35.283125 -9.42625 36.12875 -10 37 C-10.66 37 -11.32 37 -12 37 C-12.19335938 37.58007812 -12.38671875 38.16015625 -12.5859375 38.7578125 C-12.84632813 39.53898437 -13.10671875 40.32015625 -13.375 41.125 C-13.64957031 41.95257813 -13.92414063 42.78015625 -14.20703125 43.6328125 C-14.80830086 45.42773558 -15.43054279 47.21565024 -16.0625 49 C-17.29653533 52.94891305 -18.15454224 56.95259584 -19 61 C-32.92458842 65.69038768 -32.92458842 65.69038768 -39 65 C-40.52608465 63.47391535 -40.17142215 62.10774315 -40.19140625 59.984375 C-40.13137023 55.16243466 -39.27375609 50.86721936 -37.9375 46.25 C-37.71199463 45.46923096 -37.48648926 44.68846191 -37.25415039 43.8840332 C-31.97771048 26.51151961 -20.31158181 12.02877796 -4.75 2.625 C-3.89921875 2.10164063 -3.0484375 1.57828125 -2.171875 1.0390625 C-1.45515625 0.69617188 -0.7384375 0.35328125 0 0 Z " fill="#E4834B" transform="translate(304,91)"/>
<path d="M0 0 C12.44857017 0.73226883 22.45625428 6.30688446 32 14 C32.928125 14.69996094 33.85625 15.39992188 34.8125 16.12109375 C35.534375 16.74113281 36.25625 17.36117187 37 18 C37 18.66 37 19.32 37 20 C37.5878125 20.23332031 38.175625 20.46664062 38.78125 20.70703125 C43.07807237 23.21098936 45.34243951 27.90625209 48 32 C48.46535156 32.68449219 48.93070312 33.36898437 49.41015625 34.07421875 C50.5625 35.875 50.5625 35.875 52 39 C50.69996216 43.11381838 47.42475996 46.1302486 44.5625 49.25 C44.07201172 49.80429688 43.58152344 50.35859375 43.07617188 50.9296875 C41.78184954 52.34802723 40.39556825 53.68115689 39 55 C38.01 55 37.02 55 36 55 C35.484375 53.906875 34.96875 52.81375 34.4375 51.6875 C29.00131009 40.85367471 23.1607013 32.74209754 12.79296875 26.33203125 C12.20128906 25.89246094 11.60960937 25.45289062 11 25 C11 24.34 11 23.68 11 23 C12.33333333 23.33333333 13.66666667 23.66666667 15 24 C15.63679688 24.103125 16.27359375 24.20625 16.9296875 24.3125 C19.5878507 25.1952108 20.58963698 26.42090258 22.375 28.5625 C22.97828125 29.28566406 23.5815625 30.00882813 24.203125 30.75390625 C37 46.75 37 46.75 37 52 C41.01968999 48.87357445 43.41841843 46.42556841 46 42 C46.99 41.67 47.98 41.34 49 41 C47.90246546 38.89213229 46.7973604 36.78886546 45.6875 34.6875 C45.2244043 33.79514648 45.2244043 33.79514648 44.75195312 32.88476562 C43.11916424 29.80824762 41.51622006 27.39234462 39 25 C39 24.34 39 23.68 39 23 C38.34 23 37.68 23 37 23 C37 22.34 37 21.68 37 21 C36.34 21 35.68 21 35 21 C33.31066078 19.3563186 31.64740076 17.6857124 30 16 C25.86145794 12.29350354 21.43873725 10.1006197 16.4375 7.8125 C15.68275391 7.45736328 14.92800781 7.10222656 14.15039062 6.73632812 C10.78036786 5.17156866 7.63772442 3.81564009 4 3 C4 2.34 4 1.68 4 1 C2.68 0.67 1.36 0.34 0 0 Z " fill="#588FAA" transform="translate(350,86)"/>
<path d="M0 0 C1.21042969 -0.03738281 2.42085937 -0.07476562 3.66796875 -0.11328125 C7.54859389 0.41216986 8.45332465 1.24102545 10.8125 4.3125 C12.19802669 6.38267171 13.5282879 8.49049902 14.8125 10.625 C15.3379541 11.49439209 15.3379541 11.49439209 15.87402344 12.38134766 C18.24907493 16.32464144 20.5634478 20.29633535 22.8125 24.3125 C23.17214844 24.91707031 23.53179687 25.52164063 23.90234375 26.14453125 C25.67688479 29.14420027 27.2568911 31.83994436 27.8125 35.3125 C26.8225 35.3125 25.8325 35.3125 24.8125 35.3125 C24.4825 33.6625 24.1525 32.0125 23.8125 30.3125 C23.1525 30.3125 22.4925 30.3125 21.8125 30.3125 C19.41707417 25.73095739 17.30420266 21.2848422 15.8125 16.3125 C15.1525 16.3125 14.4925 16.3125 13.8125 16.3125 C12.3046875 14.1953125 12.3046875 14.1953125 10.6875 11.4375 C10.14867187 10.53257812 9.60984375 9.62765625 9.0546875 8.6953125 C7.8125 6.3125 7.8125 6.3125 7.8125 4.3125 C-0.7675 4.3125 -9.3475 4.3125 -18.1875 4.3125 C-17.5275 5.9625 -16.8675 7.6125 -16.1875 9.3125 C-16.0625 12.125 -16.0625 12.125 -16.1875 14.3125 C-19.19948042 12.80650979 -19.75991758 10.28663004 -21.1875 7.3125 C-21.8475 6.3225 -22.5075 5.3325 -23.1875 4.3125 C-23.1875 3.3225 -23.1875 2.3325 -23.1875 1.3125 C-15.46712771 0.69925057 -7.74255171 0.20454882 0 0 Z " fill="#E78B44" transform="translate(234.1875,158.6875)"/>
<path d="M0 0 C0.99 0 1.98 0 3 0 C3.92232422 1.64548828 3.92232422 1.64548828 4.86328125 3.32421875 C5.67964917 4.77866735 6.49605756 6.23309323 7.3125 7.6875 C7.71662109 8.40873047 8.12074219 9.12996094 8.53710938 9.87304688 C9.13168945 10.93168945 9.13168945 10.93168945 9.73828125 12.01171875 C10.12322754 12.70185059 10.50817383 13.39198242 10.90478516 14.10302734 C11.82497044 15.69683912 12.83113193 17.24057376 13.85546875 18.76953125 C15.22938513 21.447027 14.85256545 22.22451888 14 25 C13.71278076 24.47043701 13.42556152 23.94087402 13.12963867 23.39526367 C11.82098648 20.98969569 10.50434586 18.58859168 9.1875 16.1875 C8.73568359 15.35412109 8.28386719 14.52074219 7.81835938 13.66210938 C7.37685547 12.85966797 6.93535156 12.05722656 6.48046875 11.23046875 C5.87561646 10.12288208 5.87561646 10.12288208 5.25854492 8.99291992 C4.01894695 7.03000271 2.70426786 5.56567428 1 4 C0.52433594 4.89525391 0.52433594 4.89525391 0.0390625 5.80859375 C-3.2284314 11.883244 -6.63335665 17.86432367 -10.125 23.8125 C-10.54442871 24.52913818 -10.96385742 25.24577637 -11.39599609 25.98413086 C-13.26209525 29.14942697 -15.16116902 32.23933741 -17.21484375 35.2890625 C-19.14969291 38.03305582 -19.14969291 38.03305582 -20.4375 41.5625 C-22.11108239 45.24438126 -24.00382485 47.32773568 -27 50 C-32.55580866 42.88610478 -32.55580866 42.88610478 -33 38 C-29.64701839 39.11766054 -28.45275901 40.54724099 -26 43 C-25.34 43 -24.68 43 -24 43 C-23.71640625 42.27296875 -23.4328125 41.5459375 -23.140625 40.796875 C-20.29522816 33.81980605 -16.76713902 27.50733345 -12.4921875 21.31640625 C-9.9674273 17.39707955 -7.98693842 13.21125444 -6 9 C-5.34 9 -4.68 9 -4 9 C-3.71125 8.071875 -3.4225 7.14375 -3.125 6.1875 C-2 3 -2 3 0 0 Z " fill="#D88456" transform="translate(325,169)"/>
<path d="M0 0 C1.34888732 0.00015905 2.69778075 0.00584927 4.04663086 0.01586914 C5.10991859 0.01799156 5.10991859 0.01799156 6.19468689 0.02015686 C8.46699173 0.02577096 10.73919936 0.03832576 13.01147461 0.05102539 C14.54858257 0.05603858 16.08569206 0.0606018 17.62280273 0.06469727 C21.39823103 0.07574497 25.17358632 0.09301898 28.94897461 0.11352539 C28.61897461 1.76352539 28.28897461 3.41352539 27.94897461 5.11352539 C26.95897461 5.44352539 25.96897461 5.77352539 24.94897461 6.11352539 C24.61897461 7.10352539 24.28897461 8.09352539 23.94897461 9.11352539 C22.94897461 6.11352539 22.94897461 6.11352539 23.88647461 3.92602539 C24.41241211 3.02883789 24.41241211 3.02883789 24.94897461 2.11352539 C23.73854492 2.37262695 23.73854492 2.37262695 22.50366211 2.63696289 C19.70696942 3.01190411 17.48121226 3.11488952 14.70678711 2.96508789 C5.08223494 2.05251236 5.08223494 2.05251236 -3.36352539 5.73852539 C-4.63081223 7.16385724 -5.85301407 8.6294918 -7.05102539 10.11352539 C-8.1144057 11.268298 -9.18688991 12.41472057 -10.26586914 13.55493164 C-12.5657983 15.98580288 -14.84388719 18.43298519 -17.09790039 20.90649414 C-24.1137475 28.55105712 -24.1137475 28.55105712 -28.05102539 29.11352539 C-25.36592539 24.70996138 -22.37649194 21.27854275 -18.63696289 17.72680664 C-16.83890138 15.99871164 -16.83890138 15.99871164 -15.05102539 13.11352539 C-14.39102539 13.11352539 -13.73102539 13.11352539 -13.05102539 13.11352539 C-12.78290039 12.53602539 -12.51477539 11.95852539 -12.23852539 11.36352539 C-11.0217335 9.05802497 -9.7476866 7.09296347 -8.05102539 5.11352539 C-7.39102539 5.11352539 -6.73102539 5.11352539 -6.05102539 5.11352539 C-5.74165039 4.47415039 -5.43227539 3.83477539 -5.11352539 3.17602539 C-3.54534919 0.13191865 -3.54534919 0.13191865 0 0 Z " fill="#5A98B9" transform="translate(437.051025390625,159.886474609375)"/>
<path d="M0 0 C0.66 0.33 1.32 0.66 2 1 C-0.12274914 5.73536346 -2.42995339 7.7149767 -7 10 C-7.33 10.66 -7.66 11.32 -8 12 C-8.969375 12.12375 -9.93875 12.2475 -10.9375 12.375 C-11.948125 12.58125 -12.95875 12.7875 -14 13 C-14.68926186 14.32179435 -15.35265473 15.65717971 -16 17 C-22.63814749 23.78698488 -30.98117548 27.58231138 -40.43359375 28.23828125 C-43.30258008 28.24841901 -46.13741767 28.18271802 -49 28 C-49.33 28.99 -49.66 29.98 -50 31 C-50.33 29.35 -50.66 27.7 -51 26 C-49.04707031 25.72736328 -49.04707031 25.72736328 -47.0546875 25.44921875 C-45.32804563 25.19585282 -43.6014874 24.9419164 -41.875 24.6875 C-41.0190625 24.56955078 -40.163125 24.45160156 -39.28125 24.33007812 C-26.00841222 22.33915246 -16.45385025 13.59719092 -6.64648438 5.00024414 C-2.18116128 1.09058064 -2.18116128 1.09058064 0 0 Z " fill="#DB946E" transform="translate(315,134)"/>
<path d="M0 0 C-0.61721854 2.90607062 -1.51963684 5.17992506 -3 7.75 C-3.44214844 8.52601562 -3.88429688 9.30203125 -4.33984375 10.1015625 C-4.88769531 11.05804688 -5.43554688 12.01453125 -6 13 C-7.12678522 15.00026618 -8.24984054 17.00260507 -9.37304688 19.00488281 C-12.55884184 24.68334 -15.76406396 30.34995295 -19 36 C-19.33 36 -19.66 36 -20 36 C-20.50710303 31.19157661 -18.83930651 28.32305971 -16.5 24.1875 C-15.99919922 23.2912793 -15.99919922 23.2912793 -15.48828125 22.37695312 C-14.66827367 20.91265388 -13.83540688 19.45556863 -13 18 C-12.34 18 -11.68 18 -11 18 C-10.67 16.02 -10.34 14.04 -10 12 C-9.34 12 -8.68 12 -8 12 C-7.566875 10.88625 -7.566875 10.88625 -7.125 9.75 C-6.17631737 7.43099801 -5.13440221 5.23067324 -4 3 C-5.15628906 3.25136719 -5.15628906 3.25136719 -6.3359375 3.5078125 C-7.33882813 3.71148437 -8.34171875 3.91515625 -9.375 4.125 C-10.37273437 4.33382812 -11.37046875 4.54265625 -12.3984375 4.7578125 C-13.25695312 4.83773437 -14.11546875 4.91765625 -15 5 C-15.66 4.34 -16.32 3.68 -17 3 C-11.10261508 0.70657253 -6.33393082 -0.34548714 0 0 Z " fill="#5591B1" transform="translate(449,101)"/>
<path d="M0 0 C0.99 0 1.98 0 3 0 C3 0.66 3 1.32 3 2 C2.34 2 1.68 2 1 2 C0.67 2.99 0.34 3.98 0 5 C-0.9793879 6.02019573 -1.97895449 7.02149805 -3 8 C-3.33 8.66 -3.66 9.32 -4 10 C-4.66 10 -5.32 10 -6 10 C-6 10.66 -6 11.32 -6 12 C-7.08586291 13.12089074 -8.18125239 14.23333562 -9.30859375 15.3125 C-11.46444778 17.46337515 -13.47373658 19.72679629 -15.5 22 C-18.57953515 25.44213381 -21.68814279 28.78276729 -25 32 C-25.763125 32.763125 -26.52625 33.52625 -27.3125 34.3125 C-27.869375 34.869375 -28.42625 35.42625 -29 36 C-29.33 34.68 -29.66 33.36 -30 32 C-29.01 31.34 -28.02 30.68 -27 30 C-26.67 29.01 -26.34 28.02 -26 27 C-25.01 27 -24.02 27 -23 27 C-22.773125 26.278125 -22.54625 25.55625 -22.3125 24.8125 C-20.73664872 21.43567583 -18.79123384 19.44232961 -16 17 C-15.34 17 -14.68 17 -14 17 C-13.34 15.68 -12.68 14.36 -12 13 C-11.34 13 -10.68 13 -10 13 C-9.61521484 12.13955078 -9.61521484 12.13955078 -9.22265625 11.26171875 C-7.88079097 8.77948234 -6.32152881 6.90892454 -4.4375 4.8125 C-3.81746094 4.11769531 -3.19742187 3.42289063 -2.55859375 2.70703125 C-1.72141231 1.79011824 -0.8779528 0.8779528 0 0 Z " fill="#518FB1" transform="translate(457,169)"/>
<path d="M0 0 C0.99 0 1.98 0 3 0 C3.92232422 1.64548828 3.92232422 1.64548828 4.86328125 3.32421875 C5.67964917 4.77866735 6.49605756 6.23309323 7.3125 7.6875 C7.71662109 8.40873047 8.12074219 9.12996094 8.53710938 9.87304688 C8.93349609 10.57880859 9.32988281 11.28457031 9.73828125 12.01171875 C10.12322754 12.70185059 10.50817383 13.39198242 10.90478516 14.10302734 C11.82497044 15.69683912 12.83113193 17.24057376 13.85546875 18.76953125 C15.22938513 21.447027 14.85256545 22.22451888 14 25 C13.71278076 24.47043701 13.42556152 23.94087402 13.12963867 23.39526367 C11.82098648 20.98969569 10.50434586 18.58859168 9.1875 16.1875 C8.73568359 15.35412109 8.28386719 14.52074219 7.81835938 13.66210938 C7.37685547 12.85966797 6.93535156 12.05722656 6.48046875 11.23046875 C6.07723389 10.49207764 5.67399902 9.75368652 5.25854492 8.99291992 C4.01894695 7.03000271 2.70426786 5.56567428 1 4 C0.45472656 5.01707031 0.45472656 5.01707031 -0.1015625 6.0546875 C-3.57001191 12.47576565 -7.19183934 18.77460261 -11 25 C-11.66 24.01 -12.32 23.02 -13 22 C-12.57847656 21.31292969 -12.15695312 20.62585938 -11.72265625 19.91796875 C-11.17480469 19.01691406 -10.62695312 18.11585938 -10.0625 17.1875 C-9.51722656 16.29417969 -8.97195313 15.40085938 -8.41015625 14.48046875 C-6.88990422 11.99296438 -6.88990422 11.99296438 -6 9 C-5.34 9 -4.68 9 -4 9 C-3.71125 8.071875 -3.4225 7.14375 -3.125 6.1875 C-2 3 -2 3 0 0 Z " fill="#B78A71" transform="translate(325,169)"/>
<path d="M0 0 C3 1 3 1 4 3 C3.29875 3.4125 2.5975 3.825 1.875 4.25 C-7.94156222 10.21240468 -7.94156222 10.21240468 -15 19 C-19.91596639 24.54621849 -19.91596639 24.54621849 -24 25 C-18.81631692 14.63263384 -10.2055105 5.57120491 0 0 Z " fill="#428BB1" transform="translate(429,105)"/>
<path d="M0 0 C1.32 0.33 2.64 0.66 4 1 C4 2.32 4 3.64 4 5 C-6.23 5 -16.46 5 -27 5 C-27.33 4.01 -27.66 3.02 -28 2 C-18.52958787 1.21881118 -9.47611697 0.83343257 0 2 C0 1.34 0 0.68 0 0 Z " fill="#10547B" transform="translate(462,256)"/>
<path d="M0 0 C0.99 0.33 1.98 0.66 3 1 C-0.27199094 6.99865006 -3.67329558 12.91599512 -7.125 18.8125 C-7.5566748 19.55363037 -7.98834961 20.29476074 -8.43310547 21.05834961 C-10.46405768 24.51568237 -12.4827559 27.86578431 -15 31 C-15.33 29.68 -15.66 28.36 -16 27 C-15.34 27 -14.68 27 -14 27 C-13.9071875 25.7315625 -13.9071875 25.7315625 -13.8125 24.4375 C-12.92034913 20.66301557 -11.58126661 18.86074855 -9.26171875 15.86328125 C-7.92250437 13.88555599 -7.19594715 12.0710802 -6.4375 9.8125 C-5.26662453 6.35339934 -3.79540621 4.42268538 -1 2 C-0.67 1.34 -0.34 0.68 0 0 Z " fill="#4F90B4" transform="translate(424,141)"/>
<path d="M0 0 C0.66 0.33 1.32 0.66 2 1 C-0.12274914 5.73536346 -2.42995339 7.7149767 -7 10 C-7.33 10.66 -7.66 11.32 -8 12 C-8.969375 12.12375 -9.93875 12.2475 -10.9375 12.375 C-11.948125 12.58125 -12.95875 12.7875 -14 13 C-15.16666667 14.91666667 -15.16666667 14.91666667 -16 17 C-18.125 18.25 -18.125 18.25 -20 19 C-20.66 18.34 -21.32 17.68 -22 17 C-20.73929687 16.20142578 -20.73929687 16.20142578 -19.453125 15.38671875 C-15.6187177 12.83082269 -12.2077155 9.84898956 -8.75 6.8125 C-2.25 1.125 -2.25 1.125 0 0 Z " fill="#A2948A" transform="translate(315,134)"/>
<path d="M0 0 C1.32 0.99 2.64 1.98 4 3 C3.21496094 3.35191406 2.42992187 3.70382813 1.62109375 4.06640625 C-5.13115292 7.23954794 -10.11468774 10.37984968 -15 16 C-15.99306383 17.00688839 -16.99105866 18.00902201 -18 19 C-18.56337087 15.1690781 -18.01128327 14.01629806 -15.75 10.75 C-12.24 7.24 -12.24 7.24 -9 7 C-9 6.34 -9 5.68 -9 5 C-8.43410156 4.72285156 -7.86820312 4.44570312 -7.28515625 4.16015625 C-6.55167969 3.79792969 -5.81820313 3.43570313 -5.0625 3.0625 C-3.96615234 2.52302734 -3.96615234 2.52302734 -2.84765625 1.97265625 C-1.03750973 1.13628173 -1.03750973 1.13628173 0 0 Z " fill="#E38957" transform="translate(313,106)"/>
<path d="M0 0 C1.33333333 0.33333333 2.66666667 0.66666667 4 1 C4.95519531 1.1546875 4.95519531 1.1546875 5.9296875 1.3125 C8.5878507 2.1952108 9.58963698 3.42090258 11.375 5.5625 C11.97441406 6.28050781 12.57382812 6.99851562 13.19140625 7.73828125 C20.71013043 17.14074626 20.71013043 17.14074626 23 22 C22.34 22.66 21.68 23.32 21 24 C20.32904297 22.89591797 20.32904297 22.89591797 19.64453125 21.76953125 C14.60940232 13.64246813 9.93067443 8.36333705 1.79296875 3.33203125 C1.20128906 2.89246094 0.60960937 2.45289062 0 2 C0 1.34 0 0.68 0 0 Z " fill="#7393A2" transform="translate(361,109)"/>
<path d="M0 0 C2 1.75 2 1.75 4 4 C4 5.32 4 6.64 4 8 C4.66 8 5.32 8 6 8 C6.0825 8.94875 6.165 9.8975 6.25 10.875 C6.4975 11.90625 6.745 12.9375 7 14 C7.61746094 14.30421875 8.23492187 14.6084375 8.87109375 14.921875 C11.58712557 16.29733331 12.35770426 17.72911771 13.8125 20.375 C14.25207031 21.14585937 14.69164062 21.91671875 15.14453125 22.7109375 C16.11623296 25.31101605 15.95272312 26.43992191 15 29 C12.52414595 25.37464229 10.2499231 21.72059113 8.08349609 17.8972168 C7.01587786 16.02780236 5.92406939 14.17481984 4.82421875 12.32421875 C4.11197917 11.11197917 3.39973958 9.89973958 2.6875 8.6875 C2.31560547 8.06810547 1.94371094 7.44871094 1.56054688 6.81054688 C0.64557203 5.24128835 -0.18510094 3.62348108 -1 2 C-0.67 1.34 -0.34 0.68 0 0 Z " fill="#E08656" transform="translate(242,210)"/>
<path d="M0 0 C0.99 0.33 1.98 0.66 3 1 C3 1.66 3 2.32 3 3 C3.99 3.33 4.98 3.66 6 4 C7.53515625 6.14453125 7.53515625 6.14453125 9.0625 8.8125 C9.56910156 9.68519531 10.07570312 10.55789062 10.59765625 11.45703125 C12.90480048 15.64073848 14.27030507 18.13450874 14 23 C10.94958534 20.31182208 9.0906216 17.08561226 7 13.625 C6.319375 12.50351563 5.63875 11.38203125 4.9375 10.2265625 C4.298125 9.16179687 3.65875 8.09703125 3 7 C2.4225 6.07960937 1.845 5.15921875 1.25 4.2109375 C0 2 0 2 0 0 Z " fill="#E69B60" transform="translate(227,188)"/>
<path d="M0 0 C4.8 2.46153846 4.8 2.46153846 5.8125 5.1875 C5.874375 5.785625 5.93625 6.38375 6 7 C6.66 7 7.32 7 8 7 C8.84584998 8.55575978 9.67618399 10.1199612 10.5 11.6875 C10.9640625 12.55761719 11.428125 13.42773438 11.90625 14.32421875 C13.04818792 17.11788829 13.21504208 19.01629113 13 22 C10.35881688 19.75499435 8.8391493 17.12416099 7.18359375 14.109375 C5.28346675 10.72301005 3.2146263 7.43849252 1.171875 4.13671875 C0 2 0 2 0 0 Z " fill="#E18857" transform="translate(280,188)"/>
<path d="M0 0 C0.76171875 1.6875 0.76171875 1.6875 1 4 C-0.73046875 6.4375 -0.73046875 6.4375 -3.1875 9 C-3.98542969 9.845625 -4.78335937 10.69125 -5.60546875 11.5625 C-6.39566406 12.366875 -7.18585938 13.17125 -8 14 C-8.71285156 14.74765625 -9.42570312 15.4953125 -10.16015625 16.265625 C-12.13434508 18.12664377 -13.34818305 18.62116901 -16 19 C-13.3149 14.59643599 -10.32546655 11.16501736 -6.5859375 7.61328125 C-4.78787599 5.88518625 -4.78787599 5.88518625 -3 3 C-2.34 3 -1.68 3 -1 3 C-0.67 2.01 -0.34 1.02 0 0 Z " fill="#4783A4" transform="translate(425,170)"/>
<path d="M0 0 C0.99 0 1.98 0 3 0 C2.41103058 3.59836113 1.00101444 5.45835011 -1.4375 8.125 C-2.36369141 9.14980469 -2.36369141 9.14980469 -3.30859375 10.1953125 C-4.51696487 11.48461379 -5.75050839 12.75050839 -7 14 C-7.99 14 -8.98 14 -10 14 C-13.07692308 8.58461538 -13.07692308 8.58461538 -12.6875 5.625 C-12.460625 5.08875 -12.23375 4.5525 -12 4 C-9 7.625 -9 7.625 -9 11 C-5.08215169 7.95278465 -2.26022917 5.52045835 0 1 C0 0.67 0 0.34 0 0 Z " fill="#6A95AA" transform="translate(396,127)"/>
<path d="M0 0 C1 3 1 3 0.22265625 4.76171875 C-0.16019531 5.39722656 -0.54304688 6.03273437 -0.9375 6.6875 C-2.59034722 9.74020761 -3.23117344 11.77921967 -3.0625 15.25 C-2.99399448 19.36033149 -3.46536579 20.02427361 -6 23 C-6.0544452 20.79194476 -6.09299283 18.58349446 -6.125 16.375 C-6.14820313 15.14523438 -6.17140625 13.91546875 -6.1953125 12.6484375 C-6.00047204 9.00881763 -5.5031995 6.31500287 -4 3 C-3.01 2.67 -2.02 2.34 -1 2 C-0.67 1.34 -0.34 0.68 0 0 Z " fill="#E6814A" transform="translate(273,125)"/>
<path d="M0 0 C-0.71422108 6.18991603 -6.77909876 10.887327 -11 15 C-12.1446875 16.1446875 -12.1446875 16.1446875 -13.3125 17.3125 C-13.869375 17.869375 -14.42625 18.42625 -15 19 C-15.33 17.68 -15.66 16.36 -16 15 C-15.01 14.34 -14.02 13.68 -13 13 C-12.67 12.01 -12.34 11.02 -12 10 C-11.01 10 -10.02 10 -9 10 C-8.773125 9.278125 -8.54625 8.55625 -8.3125 7.8125 C-6.69128911 4.33847667 -4.19897213 0 0 0 Z " fill="#447FA1" transform="translate(443,186)"/>
<path d="M0 0 C0.2475 0.61875 0.495 1.2375 0.75 1.875 C1.79107802 4.1211314 1.79107802 4.1211314 3.8203125 4.79296875 C6.81792274 6.45293571 8.17236585 8.64218913 10.125 11.4375 C10.80820312 12.40558594 11.49140625 13.37367188 12.1953125 14.37109375 C13.47704093 16.23820032 14.74376451 18.11564676 16 20 C14.68 20 13.36 20 12 20 C9.58152803 17.49515403 9 16.53986194 9 13 C8.34 13 7.68 13 7 13 C3 8.52941176 3 8.52941176 3 6 C2.34 6 1.68 6 1 6 C0.67 4.02 0.34 2.04 0 0 Z " fill="#487F9D" transform="translate(438,222)"/>
<path d="M0 0 C3.80777256 3.38468672 5.88214351 6.45621132 8.01953125 11.0625 C9.34025094 13.67236838 11.08042273 15.80619741 13 18 C12 20 12 20 10 21 C9.87625 19.576875 9.87625 19.576875 9.75 18.125 C9.5025 17.09375 9.255 16.0625 9 15 C8.071875 14.54367188 8.071875 14.54367188 7.125 14.078125 C4.41146173 12.70140338 3.67961897 11.28126734 2.25 8.625 C1.82203125 7.85414063 1.3940625 7.08328125 0.953125 6.2890625 C0 4 0 4 0 0 Z " fill="#E09365" transform="translate(262,194)"/>
<path d="M0 0 C0.66 0.33 1.32 0.66 2 1 C-0.89867382 5.12503582 -3.4501959 6.91467312 -8 9 C-8.70125 9.5775 -9.4025 10.155 -10.125 10.75 C-12 12 -12 12 -14.25 11.6875 C-14.8275 11.460625 -15.405 11.23375 -16 11 C-11.14759716 6.65837641 -5.89445654 2.82000978 0 0 Z " fill="#D18D66" transform="translate(304,91)"/>
<path d="M0 0 C1.31226563 -0.01417969 2.62453125 -0.02835938 3.9765625 -0.04296875 C7.375 0.1875 7.375 0.1875 10.375 2.1875 C10.045 2.8475 9.715 3.5075 9.375 4.1875 C6.27010601 4.07758434 3.16642006 3.94696585 0.0625 3.8125 C-0.81857422 3.7815625 -1.69964844 3.750625 -2.60742188 3.71875 C-3.45498047 3.68007812 -4.30253906 3.64140625 -5.17578125 3.6015625 C-5.95606689 3.5701416 -6.73635254 3.5387207 -7.5402832 3.50634766 C-9.625 3.1875 -9.625 3.1875 -12.625 1.1875 C-8.38588719 0.16454807 -4.35390125 0.02146894 0 0 Z " fill="#E49456" transform="translate(233.625,158.8125)"/>
<path d="M0 0 C4.1532931 1.38443103 5.13752631 4.22765818 7.125 7.875 C7.48464844 8.51308594 7.84429687 9.15117187 8.21484375 9.80859375 C9.72016294 12.50914765 11.02026512 15.06079537 12 18 C11.01 18.33 10.02 18.66 9 19 C8.3490741 17.75264433 7.70448331 16.50198168 7.0625 15.25 C6.70285156 14.55390625 6.34320313 13.8578125 5.97265625 13.140625 C5 11 5 11 4.49609375 8.796875 C4.33238281 8.20390625 4.16867187 7.6109375 4 7 C3.34 6.67 2.68 6.34 2 6 C2 5.34 2 4.68 2 4 C0.68 4.33 -0.64 4.66 -2 5 C-1.34 3.35 -0.68 1.7 0 0 Z " fill="#E18650" transform="translate(325,183)"/>
<path d="M0 0 C8.05412733 0.4737722 17.30945736 2.65318437 23.390625 8.16796875 C23.92171875 8.77253906 24.4528125 9.37710938 25 10 C19.63485853 9.56498853 15.36394463 7.45825904 10.5859375 5.15625 C8.3697726 4.16533639 6.36774964 3.4891126 4 3 C4 2.34 4 1.68 4 1 C2.68 0.67 1.36 0.34 0 0 Z " fill="#6F97A9" transform="translate(350,86)"/>
<path d="M0 0 C0.99 0 1.98 0 3 0 C3.61488281 1.09699219 4.22976563 2.19398438 4.86328125 3.32421875 C5.67964917 4.77866735 6.49605756 6.23309323 7.3125 7.6875 C7.71662109 8.40873047 8.12074219 9.12996094 8.53710938 9.87304688 C8.93349609 10.57880859 9.32988281 11.28457031 9.73828125 12.01171875 C10.12322754 12.70185059 10.50817383 13.39198242 10.90478516 14.10302734 C11.82497044 15.69683912 12.83113193 17.24057376 13.85546875 18.76953125 C15.22938513 21.447027 14.85256545 22.22451888 14 25 C13.71801758 24.48091064 13.43603516 23.96182129 13.14550781 23.42700195 C11.85203478 21.0527215 10.55109455 18.68261184 9.25 16.3125 C8.8065625 15.49587891 8.363125 14.67925781 7.90625 13.83789062 C5.5508481 9.56006511 3.1016937 5.79015375 0 2 C0 1.34 0 0.68 0 0 Z " fill="#9B897D" transform="translate(325,169)"/>
<path d="M0 0 C0.99 0.33 1.98 0.66 3 1 C2.21258141 2.46063143 1.4199095 3.91843173 0.625 5.375 C0.18414062 6.18710937 -0.25671875 6.99921875 -0.7109375 7.8359375 C-2 10 -2 10 -4 12 C-4.99 12 -5.98 12 -7 12 C-8.32 9.36 -9.64 6.72 -11 4 C-9.68 4.33 -8.36 4.66 -7 5 C-6.67 6.32 -6.34 7.64 -6 9 C-5.01 8.67 -4.02 8.34 -3 8 C-3 7.01 -3 6.02 -3 5 C-2.05273046 3.30280873 -1.05771739 1.63064764 0 0 Z " fill="#DB8563" transform="translate(297,283)"/>
<path d="M0 0 C0 3.72207387 -1.17964568 5.46395589 -3 8.6875 C-3.8353125 10.17830078 -3.8353125 10.17830078 -4.6875 11.69921875 C-5.120625 12.45847656 -5.55375 13.21773437 -6 14 C-7.921875 13.62890625 -7.921875 13.62890625 -10 13 C-11.25 10.9375 -11.25 10.9375 -12 9 C-10.5459375 8.814375 -10.5459375 8.814375 -9.0625 8.625 C-8.051875 8.41875 -7.04125 8.2125 -6 8 C-5.67 7.34 -5.34 6.68 -5 6 C-4.34 6 -3.68 6 -3 6 C-2.87625 5.195625 -2.7525 4.39125 -2.625 3.5625 C-2.41875 2.716875 -2.2125 1.87125 -2 1 C-1.34 0.67 -0.68 0.34 0 0 Z " fill="#A49B94" transform="translate(362,204)"/>
<path d="M0 0 C0.99 0.66 1.98 1.32 3 2 C2.67 2.99 2.34 3.98 2 5 C-8.23 5 -18.46 5 -29 5 C-29 4.67 -29 4.34 -29 4 C-19.43 3.67 -9.86 3.34 0 3 C0 2.01 0 1.02 0 0 Z " fill="#82A2B5" transform="translate(464,256)"/>
<path d="M0 0 C0.33 0 0.66 0 1 0 C1.61528766 5.07612318 -0.38341651 7.82982006 -3 12 C-3.66 12 -4.32 12 -5 12 C-5.33 12.99 -5.66 13.98 -6 15 C-6.66 15 -7.32 15 -8 15 C-6.5320383 9.66195747 -3.98519676 3.98519676 0 0 Z " fill="#E38A59" transform="translate(278,113)"/>
<path d="M0 0 C0.99 0 1.98 0 3 0 C5.42603384 2.98055586 6.91332443 5.00323092 7.25 8.875 C7.1675 9.57625 7.085 10.2775 7 11 C7.66 11 8.32 11 9 11 C9 12.65 9 14.3 9 16 C6.72861652 13.06698229 4.73130058 10.04931207 2.8125 6.875 C2.28269531 6.00617188 1.75289063 5.13734375 1.20703125 4.2421875 C0 2 0 2 0 0 Z " fill="#E38B69" transform="translate(268,256)"/>
<path d="M0 0 C0.99 0.66 1.98 1.32 3 2 C0.36 6.62 -2.28 11.24 -5 16 C-5.33 16 -5.66 16 -6 16 C-6.3913152 11.54063718 -5.21759262 9.02208724 -3 5.1875 C-2.443125 4.21167969 -1.88625 3.23585938 -1.3125 2.23046875 C-0.879375 1.49441406 -0.44625 0.75835937 0 0 Z " fill="#5091B3" transform="translate(435,121)"/>
<path d="M0 0 C0.66 0 1.32 0 2 0 C1.45865928 3.89765319 0.39582337 5.93334609 -2 9 C-2.71162443 10.64797236 -3.39031953 12.31165408 -4 14 C-4.99 14 -5.98 14 -7 14 C-7 13.01 -7 12.02 -7 11 C-6.34 11 -5.68 11 -5 11 C-4.67 9.02 -4.34 7.04 -4 5 C-3.34 5 -2.68 5 -2 5 C-1.34 3.35 -0.68 1.7 0 0 Z " fill="#458BAF" transform="translate(443,108)"/>
<path d="M0 0 C0.99 0 1.98 0 3 0 C5.27837542 2.27837542 5.96646289 3.50812237 6.1875 6.75 C6.125625 7.4925 6.06375 8.235 6 9 C6.66 9 7.32 9 8 9 C8 9.99 8 10.98 8 12 C8.99 12.33 9.98 12.66 11 13 C10.67 13.99 10.34 14.98 10 16 C5.88956842 11.00876166 2.16867584 6.14458155 0 0 Z " fill="#E18963" transform="translate(258,240)"/>
<path d="M0 0 C0.33 0.66 0.66 1.32 1 2 C-4.82254243 3.96818336 -9.83381819 5.40214229 -16 5 C-16 4.67 -16 4.34 -16 4 C-15.21625 3.87625 -14.4325 3.7525 -13.625 3.625 C-10.85942178 3.20882007 -10.85942178 3.20882007 -9 1 C-5.97380078 -0.04351697 -3.18208557 -0.08839127 0 0 Z " fill="#E59261" transform="translate(281,151)"/>
<path d="M0 0 C1.1796875 1.609375 1.1796875 1.609375 2 4 C0.8828125 7.015625 0.8828125 7.015625 -0.875 10.25 C-1.44992187 11.32765625 -2.02484375 12.4053125 -2.6171875 13.515625 C-3.30167969 14.74539062 -3.30167969 14.74539062 -4 16 C-4.66 15.01 -5.32 14.02 -6 13 C-5.73445313 12.48050781 -5.46890625 11.96101562 -5.1953125 11.42578125 C-3.29301903 7.66979306 -1.48040295 3.94774121 0 0 Z " fill="#508BAD" transform="translate(407,171)"/>
<path d="M0 0 C1.32 0.33 2.64 0.66 4 1 C4 2.32 4 3.64 4 5 C4.99 5 5.98 5 7 5 C9.09350689 8.4019487 9.17942163 11.05272412 9 15 C6.55586611 11.91730861 4.66890476 8.71528889 2.8125 5.25 C2.28269531 4.26515625 1.75289063 3.2803125 1.20703125 2.265625 C0.80871094 1.51796875 0.41039062 0.7703125 0 0 Z " fill="#E28663" transform="translate(277,272)"/>
<path d="M0 0 C5 5.64516129 5 5.64516129 5 10 C3.86763238 12.52280971 2.51145518 14.66411473 1 17 C0.34 15.68 -0.32 14.36 -1 13 C-0.34 12.34 0.32 11.68 1 11 C1.21358801 7.15541573 1.17881287 3.68379022 0 0 Z " fill="#E09770" transform="translate(337,201)"/>
<path d="M0 0 C1.67542976 0.28604898 3.34385343 0.61781233 5 1 C0.18099548 5.97963801 0.18099548 5.97963801 -4.625 6.0625 C-5.73875 6.041875 -6.8525 6.02125 -8 6 C-5.84145761 3.84145761 -3.61978408 2.54500087 -1 1 C-0.67 0.67 -0.34 0.34 0 0 Z " fill="#BF805E" transform="translate(291,152)"/>
<path d="M0 0 C1.32 0.99 2.64 1.98 4 3 C-2.435 5.97 -2.435 5.97 -9 9 C-9 7.68 -9 6.36 -9 5 C-8.43410156 4.72285156 -7.86820312 4.44570312 -7.28515625 4.16015625 C-6.55167969 3.79792969 -5.81820313 3.43570313 -5.0625 3.0625 C-3.96615234 2.52302734 -3.96615234 2.52302734 -2.84765625 1.97265625 C-1.03750973 1.13628173 -1.03750973 1.13628173 0 0 Z " fill="#D0875F" transform="translate(313,106)"/>
<path d="M0 0 C0.66 0 1.32 0 2 0 C0.51194289 5.80342274 -2.59097555 10.17590879 -6 15 C-7.24546405 12.50907189 -6.7767578 11.58919267 -6 9 C-5.34 9 -4.68 9 -4 9 C-3.71125 7.88625 -3.4225 6.7725 -3.125 5.625 C-2 2 -2 2 0 0 Z " fill="#E18B69" transform="translate(313,256)"/>
<path d="M0 0 C2 1.75 2 1.75 4 4 C4 5.32 4 6.64 4 8 C4.66 8 5.32 8 6 8 C6.66 10.64 7.32 13.28 8 16 C4.96343083 13.4011345 3.53836261 10.37928272 1.8125 6.8125 C1.28269531 5.72582031 0.75289062 4.63914063 0.20703125 3.51953125 C-0.19128906 2.68808594 -0.58960938 1.85664063 -1 1 C-0.67 0.67 -0.34 0.34 0 0 Z " fill="#E49865" transform="translate(242,210)"/>
<path d="M0 0 C0.66 0.66 1.32 1.32 2 2 C2.66 1.67 3.32 1.34 4 1 C2.50163895 4.11198065 0.80066242 7.0534615 -1 10 C-1.99 9.67 -2.98 9.34 -4 9 C-3.52418802 7.68628013 -3.04424851 6.37405454 -2.5625 5.0625 C-2.29566406 4.33160156 -2.02882813 3.60070312 -1.75390625 2.84765625 C-1 1 -1 1 0 0 Z " fill="#5287A2" transform="translate(394,200)"/>
<path d="M0 0 C0.6796875 1.671875 0.6796875 1.671875 1 4 C-0.1796875 6.578125 -0.1796875 6.578125 -1.875 9.25 C-2.42929687 10.14203125 -2.98359375 11.0340625 -3.5546875 11.953125 C-4.03164063 12.62859375 -4.50859375 13.3040625 -5 14 C-5.33 14 -5.66 14 -6 14 C-5.62257767 7.83543524 -3.84129692 4.82624485 0 0 Z " fill="#C88562" transform="translate(312,192)"/>
<path d="M0 0 C2.31 0 4.62 0 7 0 C6.34 0.66 5.68 1.32 5 2 C4.34 2 3.68 2 3 2 C3 2.66 3 3.32 3 4 C3.66 4.598125 4.32 5.19625 5 5.8125 C7 8 7 8 7.25 10.75 C7.1675 11.4925 7.085 12.235 7 13 C3.98801958 11.49400979 3.42758242 8.97413004 2 6 C1.34 5.01 0.68 4.02 0 3 C0 2.01 0 1.02 0 0 Z " fill="#E6AB74" transform="translate(211,160)"/>
<path d="M0 0 C0 4.46153846 0 4.46153846 -1 7 C-3.3125 9.3125 -3.3125 9.3125 -6 11 C-8.3125 10.75 -8.3125 10.75 -10 10 C-9.0925 9.278125 -8.185 8.55625 -7.25 7.8125 C-4.4298006 5.47347206 -2.19093342 2.94933345 0 0 Z " fill="#66A1C1" transform="translate(398,137)"/>
<path d="M0 0 C0 4.1592308 -2.24683568 6.14544435 -5 9 C-7.3125 10.875 -7.3125 10.875 -9 12 C-9.66 11.67 -10.32 11.34 -11 11 C-10.566875 10.608125 -10.13375 10.21625 -9.6875 9.8125 C-7.87487334 8.01361374 -7.87487334 8.01361374 -6.625 5.5 C-4.76627638 2.64042519 -3.00160438 1.54136441 0 0 Z " fill="#28698D" transform="translate(405,195)"/>
<path d="M0 0 C2.96175123 0.61277612 4.38058783 1.25372522 7 3 C7 3.99 7 4.98 7 6 C3.04 6 -0.92 6 -5 6 C-5 5.01 -5 4.02 -5 3 C-2.36 3.33 0.28 3.66 3 4 C3 3.34 3 2.68 3 2 C2.01 2 1.02 2 0 2 C0 1.34 0 0.68 0 0 Z " fill="#86A6B3" transform="translate(357,128)"/>
<path d="M0 0 C-1.36370299 2.99220268 -2.94908083 5.29026529 -5.125 7.75 C-5.93324219 8.67039063 -5.93324219 8.67039063 -6.7578125 9.609375 C-7.16773438 10.06828125 -7.57765625 10.5271875 -8 11 C-8.671875 9.234375 -8.671875 9.234375 -9 7 C-7.890625 5.078125 -7.890625 5.078125 -6.25 3.25 C-5.71890625 2.63640625 -5.1878125 2.0228125 -4.640625 1.390625 C-3 0 -3 0 0 0 Z " fill="#507F98" transform="translate(400,234)"/>
<path d="M0 0 C-0.60694155 3.15330554 -1.6416665 5.18888867 -3.5625 7.75 C-4.24505859 8.67039063 -4.24505859 8.67039063 -4.94140625 9.609375 C-5.29074219 10.06828125 -5.64007813 10.5271875 -6 11 C-7.04528847 7.76591956 -7.06464549 7.15699619 -5.6875 3.8125 C-3.4 0 -3.4 0 0 0 Z " fill="#2A5B78" transform="translate(339,231)"/>
<path d="M0 0 C0.66 0 1.32 0 2 0 C0.53967505 5.31027254 -1.98320986 9.46330032 -5 14 C-6 11 -6 11 -5 8 C-4.34 8 -3.68 8 -3 8 C-2.67 6.68 -2.34 5.36 -2 4 C-1.34 4 -0.68 4 0 4 C0 2.68 0 1.36 0 0 Z " fill="#DD8C67" transform="translate(334,219)"/>
<path d="M0 0 C2.97 0 5.94 0 9 0 C8.67 1.65 8.34 3.3 8 5 C7.34 5 6.68 5 6 5 C5.67 5.99 5.34 6.98 5 8 C4 5 4 5 4.9375 2.8125 C5.4634375 1.9153125 5.4634375 1.9153125 6 1 C4.02 1.33 2.04 1.66 0 2 C0 1.34 0 0.68 0 0 Z " fill="#458AB0" transform="translate(456,161)"/>
<path d="M0 0 C3.94999843 4.73999811 6.34975674 7.70437864 6 14 C3.59756535 11.84655717 2.39755056 10.03125235 1.3125 7 C1.06113281 6.319375 0.80976563 5.63875 0.55078125 4.9375 C0 3 0 3 0 0 Z " fill="#E79252" transform="translate(235,197)"/>
<path d="M0 0 C0.66 0 1.32 0 2 0 C0.88059018 4.85077588 -0.1334716 7.777893 -4 11 C-3.49357808 6.64477147 -2.61588503 3.55760365 0 0 Z " fill="#E28A66" transform="translate(304,271)"/>
<path d="M0 0 C2.12636813 0.28151916 4.25108528 0.57553263 6.375 0.875 C7.55835938 1.03742188 8.74171875 1.19984375 9.9609375 1.3671875 C13 2 13 2 15 4 C12.87422093 3.9131724 10.74930419 3.8050049 8.625 3.6875 C7.44164062 3.62949219 6.25828125 3.57148437 5.0390625 3.51171875 C3.53472656 3.25841797 3.53472656 3.25841797 2 3 C1.34 2.01 0.68 1.02 0 0 Z " fill="#969896" transform="translate(339,102)"/>
<path d="M0 0 C0.97582031 0.00902344 1.95164063 0.01804688 2.95703125 0.02734375 C3.69308594 0.03894531 4.42914063 0.05054688 5.1875 0.0625 C5.1875 0.3925 5.1875 0.7225 5.1875 1.0625 C3.5375 1.3925 1.8875 1.7225 0.1875 2.0625 C0.1875 2.3925 0.1875 2.7225 0.1875 3.0625 C-1.070625 3.10375 -2.32875 3.145 -3.625 3.1875 C-4.33269531 3.21070313 -5.04039062 3.23390625 -5.76953125 3.2578125 C-7.8125 3.0625 -7.8125 3.0625 -10.8125 1.0625 C-7.13862505 0.20951624 -3.7677607 -0.04539471 0 0 Z " fill="#E5AC7F" transform="translate(231.8125,158.9375)"/>
<path d="M0 0 C0.66 0.33 1.32 0.66 2 1 C1.49287967 4.71888239 0.88391785 7.73454239 -1 11 C-1.99 11 -2.98 11 -4 11 C-3.71125 10.29875 -3.4225 9.5975 -3.125 8.875 C-1.97866412 5.94547497 -0.97374346 2.99078347 0 0 Z " fill="#2F627F" transform="translate(381,254)"/>
<path d="M0 0 C0.66 0 1.32 0 2 0 C1.62671065 5.35048061 0.0042343 7.50912907 -4 11 C-3.21681311 7.08406554 -1.60820142 3.63593365 0 0 Z " fill="#235B7A" transform="translate(389,242)"/>
<path d="M0 0 C4.39158329 1.4638611 4.87947433 3.97831338 7 8 C4.525 7.01 4.525 7.01 2 6 C2 5.34 2 4.68 2 4 C0.68 4.33 -0.64 4.66 -2 5 C-1.34 3.35 -0.68 1.7 0 0 Z " fill="#DD9464" transform="translate(325,183)"/>
<path d="M0 0 C0.66 0 1.32 0 2 0 C3.07421875 5.859375 3.07421875 5.859375 3 8 C2.01 9.32 1.02 10.64 0 12 C0 8.04 0 4.08 0 0 Z " fill="#EE6F28" transform="translate(267,136)"/>
<path d="M0 0 C0.99 0.33 1.98 0.66 3 1 C3 1.99 3 2.98 3 4 C3.66 4 4.32 4 5 4 C5.33 5.98 5.66 7.96 6 10 C2.46413986 6.82679218 0.41421969 4.83256305 0 0 Z " fill="#255A78" transform="translate(353,281)"/>
<path d="M0 0 C0.33 0 0.66 0 1 0 C1 3.63 1 7.26 1 11 C-1.31 10.67 -3.62 10.34 -6 10 C-6 9.67 -6 9.34 -6 9 C-4.35 9 -2.7 9 -1 9 C-0.67 6.03 -0.34 3.06 0 0 Z " fill="#E57537" transform="translate(284,141)"/>
<path d="M0 0 C0.99 0.33 1.98 0.66 3 1 C0.525 5.455 0.525 5.455 -2 10 C-2.66 8.68 -3.32 7.36 -4 6 C-2.68 4.02 -1.36 2.04 0 0 Z " fill="#E28E6D" transform="translate(297,283)"/>
<path d="M0 0 C0.66 0 1.32 0 2 0 C2.66 0.66 3.32 1.32 4 2 C5.2684375 3.2375 5.2684375 3.2375 6.5625 4.5 C9 7 9 7 10 9 C8.125 8.75 8.125 8.75 6 8 C5.30062468 6.68352881 4.63270867 5.34977849 4 4 C3.01 3.67 2.02 3.34 1 3 C0.67 2.01 0.34 1.02 0 0 Z " fill="#5D8CA4" transform="translate(416,237)"/>
<path d="M0 0 C0.33 0 0.66 0 1 0 C1.1875 2.3125 1.1875 2.3125 1 5 C-0.375 6.5 -0.375 6.5 -2 8 C-3.19027984 10.59915538 -3.19027984 10.59915538 -4 13 C-4.66 13 -5.32 13 -6 13 C-4.58707905 8.1725201 -2.57025846 4.2837641 0 0 Z " fill="#E18C64" transform="translate(301,225)"/>
<path d="M0 0 C3.3 0 6.6 0 10 0 C4 4 4 4 1 5 C0.67 3.35 0.34 1.7 0 0 Z " fill="#DF7238" transform="translate(265,161)"/>
<path d="M0 0 C0.7425 0.0825 1.485 0.165 2.25 0.25 C0 2.8125 0 2.8125 -2.75 5.25 C-5.0625 5.0625 -5.0625 5.0625 -6.75 4.25 C-3.42692308 0.31153846 -3.42692308 0.31153846 0 0 Z " fill="#E18D5D" transform="translate(294.75,97.75)"/>
<path d="M0 0 C2.631724 2.45627573 4.81527263 4.55352037 6 8 C5.71101782 9.34364362 5.38228783 10.67986936 5 12 C4.15885829 10.56705502 3.32734313 9.12845595 2.5 7.6875 C1.80390625 6.48673828 1.80390625 6.48673828 1.09375 5.26171875 C0 3 0 3 0 0 Z " fill="#A5968B" transform="translate(334,182)"/>
<path d="M0 0 C-1.125 1.5 -1.125 1.5 -3 3 C-6.1875 3.1875 -6.1875 3.1875 -9 3 C-8.67 2.01 -8.34 1.02 -8 0 C-5.04215769 -1.22393475 -3.00272755 -0.96516243 0 0 Z " fill="#B57C5C" transform="translate(314,90)"/>
<path d="M0 0 C0.33 0 0.66 0 1 0 C1.63019694 9.99562363 1.63019694 9.99562363 -1 14.1875 C-1.66 14.785625 -2.32 15.38375 -3 16 C-2.125 10.125 -2.125 10.125 -1 9 C-0.76807135 7.48530552 -0.58784762 5.96245438 -0.4375 4.4375 C-0.35371094 3.61121094 -0.26992188 2.78492188 -0.18359375 1.93359375 C-0.12300781 1.29550781 -0.06242187 0.65742188 0 0 Z " fill="#225E80" transform="translate(385,196)"/>
<path d="M0 0 C2.50037734 2.17424117 3.43628586 3.73045798 4 7 C3.01 7.66 2.02 8.32 1 9 C0.63877119 7.68942607 0.28619689 6.37646376 -0.0625 5.0625 C-0.35833984 3.96615234 -0.35833984 3.96615234 -0.66015625 2.84765625 C-0.77230469 2.23792969 -0.88445312 1.62820312 -1 1 C-0.67 0.67 -0.34 0.34 0 0 Z " fill="#709FB8" transform="translate(398,120)"/>
<path d="M0 0 C3.39417765 3.12621626 5.6062718 5.56541027 7 10 C3.64501065 8.61172854 1.84949545 7.14414226 0 4 C0 2.68 0 1.36 0 0 Z " fill="#477F9D" transform="translate(427,208)"/>
<path d="M0 0 C2 1.125 2 1.125 4 3 C4.25 6.1875 4.25 6.1875 4 9 C1.47740939 7.02579865 1.0070192 6.03254358 0.3125 2.8125 C0.209375 1.884375 0.10625 0.95625 0 0 Z " fill="#E48950" transform="translate(262,194)"/>
<path d="M0 0 C0 4.24645065 -1.81750806 6.38524772 -4 10 C-4.6875 8.3125 -4.6875 8.3125 -5 6 C-2.73846154 1.36923077 -2.73846154 1.36923077 0 0 Z " fill="#B39A8A" transform="translate(326,170)"/>
<path d="M0 0 C0.33 0.66 0.66 1.32 1 2 C-2.625 6.875 -2.625 6.875 -6 8 C-6.66 7.34 -7.32 6.68 -8 6 C-7.05125 5.38125 -6.1025 4.7625 -5.125 4.125 C-2.05554891 2.18029031 -2.05554891 2.18029031 0 0 Z " fill="#B9937B" transform="translate(301,145)"/>
<path d="M0 0 C3.67230705 3.07999946 4.56802365 5.2482602 5 10 C4.34 10 3.68 10 3 10 C0.96564469 6.27034861 0 4.33094958 0 0 Z " fill="#5A8297" transform="translate(383,131)"/>
<path d="M0 0 C2.66666667 0.66666667 5.33333333 1.33333333 8 2 C8 2.99 8 3.98 8 5 C4.62537285 4.45276317 2.91765 3.9451 0 2 C0 1.34 0 0.68 0 0 Z " fill="#698592" transform="translate(361,109)"/>
<path d="M0 0 C2.5 1.625 2.5 1.625 5 4 C5.3125 7.25 5.3125 7.25 5 10 C4.34 8.68 3.68 7.36 3 6 C2.34 6 1.68 6 1 6 C0.67 4.02 0.34 2.04 0 0 Z " fill="#12496A" transform="translate(333,245)"/>
<path d="M0 0 C0.66 0 1.32 0 2 0 C1.5206753 4.31392226 0.2542015 6.16569547 -3 9 C-2.01 6.03 -1.02 3.06 0 0 Z " fill="#E49778" transform="translate(318,247)"/>
<path d="M0 0 C2.72426311 2.35277269 3.8141763 4.62496331 5 8 C4.34 8.66 3.68 9.32 3 10 C0 3.375 0 3.375 0 0 Z " fill="#DF865D" transform="translate(282,227)"/>
<path d="M0 0 C1.11375 0.1546875 1.11375 0.1546875 2.25 0.3125 C-0.58430453 3.5667015 -2.43607774 4.8331753 -6.75 5.3125 C-3.42692308 0.38942308 -3.42692308 0.38942308 0 0 Z " fill="#E47E47" transform="translate(289.75,102.6875)"/>
<path d="M0 0 C-1.32 0.33 -2.64 0.66 -4 1 C-4 1.66 -4 2.32 -4 3 C-6.375 3.625 -6.375 3.625 -9 4 C-9.66 3.34 -10.32 2.68 -11 2 C-7.17679443 0.57741188 -4.08718695 -0.24042276 0 0 Z " fill="#AC907E" transform="translate(323,86)"/>
<path d="M0 0 C0.625 1.8125 0.625 1.8125 1 4 C0.01 5.485 0.01 5.485 -1 7 C-1.66 7 -2.32 7 -3 7 C-3.1875 4.625 -3.1875 4.625 -3 2 C-2.01 1.34 -1.02 0.68 0 0 Z " fill="#2B5E79" transform="translate(368,279)"/>
<path d="M0 0 C0.99 0 1.98 0 3 0 C2.75 1.875 2.75 1.875 2 4 C-0.0625 5.25 -0.0625 5.25 -2 6 C-1.49396008 3.83125748 -1.00016187 2.00032373 0 0 Z " fill="#2F6280" transform="translate(367,231)"/>
<path d="M0 0 C2.625 -0.1875 2.625 -0.1875 5 0 C3.02 2.31 1.04 4.62 -1 7 C-1.33 5.68 -1.66 4.36 -2 3 C-1.34 2.01 -0.68 1.02 0 0 Z " fill="#4F8099" transform="translate(404,226)"/>
<path d="M0 0 C0.99 0.66 1.98 1.32 3 2 C1.625 4.5 1.625 4.5 0 7 C-0.66 7 -1.32 7 -2 7 C-1.125 1.125 -1.125 1.125 0 0 Z " fill="#5999BB" transform="translate(435,121)"/>
<path d="M0 0 C-2.59482129 2.59482129 -4.39883625 2.69990302 -8 3 C-8.66 2.34 -9.32 1.68 -10 1 C-3.71428571 -1.42857143 -3.71428571 -1.42857143 0 0 Z " fill="#478CB1" transform="translate(442,103)"/>
<path d="M0 0 C1.39195915 4.17587745 -0.17676781 6.13474776 -2 10 C-2.98120464 6.94736336 -2.98120464 5.05263664 -2 2 C-1.34 2 -0.68 2 0 2 C0 1.34 0 0.68 0 0 Z " fill="#225775" transform="translate(375,266)"/>
<path d="M0 0 C0.99 0.33 1.98 0.66 3 1 C4.1875 4.0625 4.1875 4.0625 5 7 C4.01 7.495 4.01 7.495 3 8 C0 3.375 0 3.375 0 0 Z " fill="#527C95" transform="translate(354,233)"/>
<path d="M0 0 C4.8 2.46153846 4.8 2.46153846 5.8125 5.1875 C5.874375 5.785625 5.93625 6.38375 6 7 C5.01 7 4.02 7 3 7 C2.67 5.35 2.34 3.7 2 2 C1.34 2 0.68 2 0 2 C0 1.34 0 0.68 0 0 Z " fill="#E68947" transform="translate(256,187)"/>
<path d="M0 0 C0.33 1.32 0.66 2.64 1 4 C-0.65 5.32 -2.3 6.64 -4 8 C-4.66 7.67 -5.32 7.34 -6 7 C-4.625 5 -4.625 5 -3 3 C-2.34 3 -1.68 3 -1 3 C-0.67 2.01 -0.34 1.02 0 0 Z " fill="#659CB8" transform="translate(425,170)"/>
<path d="M0 0 C0 3 0 3 -1 5 C-3.5625 5.625 -3.5625 5.625 -6 6 C-6 5.01 -6 4.02 -6 3 C-4.02 2.01 -2.04 1.02 0 0 Z " fill="#A1806D" transform="translate(308,141)"/>
<path d="M0 0 C0.66 0 1.32 0 2 0 C1.01 2.97 0.02 5.94 -1 9 C-1.33 9 -1.66 9 -2 9 C-2.125 5.625 -2.125 5.625 -2 2 C-1.34 1.34 -0.68 0.68 0 0 Z " fill="#E0905F" transform="translate(289,131)"/>
<path d="M0 0 C0.99 0 1.98 0 3 0 C2.43628586 3.26954202 1.50037734 4.82575883 -1 7 C-1 3 -1 3 0 0 Z " fill="#538DAA" transform="translate(396,127)"/>
<path d="M0 0 C0.66 0 1.32 0 2 0 C2.99 1.98 3.98 3.96 5 6 C4.34 6.66 3.68 7.32 3 8 C0 3.375 0 3.375 0 0 Z " fill="#7D9FAE" transform="translate(379,125)"/>
<path d="M0 0 C1.32 0.33 2.64 0.66 4 1 C4.33 3.31 4.66 5.62 5 8 C2.27573689 5.64722731 1.1858237 3.37503669 0 0 Z " fill="#E5976C" transform="translate(288,202)"/>
<path d="M0 0 C1 2 1 2 0.0625 5.125 C-0.288125 6.07375 -0.63875 7.0225 -1 8 C-1.99 8 -2.98 8 -4 8 C-2.68 5.36 -1.36 2.72 0 0 Z " fill="#E19568" transform="translate(322,188)"/>
<path d="M0 0 C0.33 0.66 0.66 1.32 1 2 C0.22265625 3.7265625 0.22265625 3.7265625 -0.9375 5.625 C-1.618125 6.73875 -2.29875 7.8525 -3 9 C-4 7 -4 7 -3.1875 3.9375 C-2 1 -2 1 0 0 Z " fill="#79A1B8" transform="translate(401,188)"/>
<path d="M0 0 C4 4.625 4 4.625 4 8 C2 6.8125 2 6.8125 0 5 C-0.25 2.3125 -0.25 2.3125 0 0 Z " fill="#E5A879" transform="translate(255,181)"/>
<path d="M0 0 C0.66 0 1.32 0 2 0 C1.34 1.65 0.68 3.3 0 5 C-0.5625 3.0625 -0.5625 3.0625 -1 1 C-0.67 0.67 -0.34 0.34 0 0 Z M-2 5 C-1.67 5 -1.34 5 -1 5 C-1 7.31 -1 9.62 -1 12 C-1.33 12 -1.66 12 -2 12 C-2 9.69 -2 7.38 -2 5 Z " fill="#678089" transform="translate(343,138)"/>
<path d="M0 0 C0 2.64779693 -0.17195931 4.51587793 -1 7 C-1.99 7.495 -1.99 7.495 -3 8 C-3.33 7.01 -3.66 6.02 -4 5 C-2.0625 2.3125 -2.0625 2.3125 0 0 Z " fill="#5B96B5" transform="translate(398,137)"/>
<path d="M0 0 C0.33 1.32 0.66 2.64 1 4 C-0.32 4.99 -1.64 5.98 -3 7 C-3.66 6.67 -4.32 6.34 -5 6 C-3.35 4.02 -1.7 2.04 0 0 Z " fill="#659FBB" transform="translate(404,130)"/>
<path d="M0 0 C1.32 0 2.64 0 4 0 C4 0.66 4 1.32 4 2 C2.1875 3.6875 2.1875 3.6875 0 5 C-0.99 4.67 -1.98 4.34 -3 4 C-1.75 2 -1.75 2 0 0 Z " fill="#3E87AD" transform="translate(408,125)"/>
<path d="M0 0 C3 1 3 1 4 3 C1.36 3.33 -1.28 3.66 -4 4 C-2.68 2.68 -1.36 1.36 0 0 Z " fill="#71AAC8" transform="translate(429,105)"/>
</svg>
